<?xml version="1.0" encoding="UTF-8" standalone="no"?>
<!-- Created with Inkscape (http://www.inkscape.org/) -->

<svg
   xmlns:dc="http://purl.org/dc/elements/1.1/"
   xmlns:cc="http://creativecommons.org/ns#"
   xmlns:rdf="http://www.w3.org/1999/02/22-rdf-syntax-ns#"
   xmlns:svg="http://www.w3.org/2000/svg"
   xmlns="http://www.w3.org/2000/svg"
   xmlns:sodipodi="http://sodipodi.sourceforge.net/DTD/sodipodi-0.dtd"
   xmlns:inkscape="http://www.inkscape.org/namespaces/inkscape"
   width="48mm"
   height="48mm"
   viewBox="0 0 47.999999 48.000001"
   version="1.1"
   id="svg5812"
   inkscape:version="0.92.2 (5c3e80d, 2017-08-06)"
   sodipodi:docname="CP_LOGO_color_borderless.svg">
  <defs
     id="defs5806" />
  <sodipodi:namedview
     id="base"
     pagecolor="#ffffff"
     bordercolor="#666666"
     borderopacity="1.0"
     inkscape:pageopacity="0"
     inkscape:pageshadow="2"
     inkscape:zoom="2.6697107"
     inkscape:cx="61.715235"
     inkscape:cy="118.31933"
     inkscape:document-units="mm"
     inkscape:current-layer="layer1"
     showgrid="false"
     fit-margin-top="0"
     fit-margin-left="0"
     fit-margin-right="0"
     fit-margin-bottom="0"
     inkscape:pagecheckerboard="true"
     inkscape:window-width="1920"
     inkscape:window-height="1017"
     inkscape:window-x="-8"
     inkscape:window-y="-8"
     inkscape:window-maximized="1" />
  <metadata
     id="metadata5809">
    <rdf:RDF>
      <cc:Work
         rdf:about="">
        <dc:format>image/svg+xml</dc:format>
        <dc:type
           rdf:resource="http://purl.org/dc/dcmitype/StillImage" />
        <dc:title />
      </cc:Work>
    </rdf:RDF>
  </metadata>
  <g
     inkscape:label="Ebene 1"
     inkscape:groupmode="layer"
     id="layer1"
     transform="translate(-54.303384,-5.581176)">
    <g
       id="g15">
      <g
         id="g18"
         transform="matrix(0.11764243,0,0,0.11904912,55.227762,6.4856466)"
         style="fill:#005cb7;fill-opacity:1;stroke:none">
        <path
           d="m 218,26 c -92.742,0 -168,75.266 -168,168 0,57.047 28.492,107.48 72,137.852 V 194 c 0,-0.191 0,-0.383 0,-0.574 0,-52.992 43.008,-96 96,-96 28.285,0 53.727,12.265 71.301,31.75 L 342.301,81 C 311.562,47.219 267.238,26 218,26 Z m 69.125,234 c -17.465,18.133 -41.98,29.426 -69.125,29.426 -12.727,0 -24.883,-2.473 -36,-6.977 v 75.676 c 11.598,2.535 23.645,3.875 36,3.875 47.77,0 90.898,-19.961 121.5,-52 z"
           style="fill:#005cb7;fill-opacity:1;fill-rule:evenodd;stroke:none;stroke-width:0.8144443;stroke-linecap:butt;stroke-linejoin:miter;stroke-miterlimit:4;stroke-dasharray:none;stroke-opacity:1"
           id="path20"
           inkscape:connector-curvature="0" />
      </g>
      <g
         id="g22"
         transform="matrix(0.11764243,0,0,0.11904912,55.227762,6.4856466)"
         style="fill:#0089eb;fill-opacity:1;stroke:none">
        <path
           d="m 254,194 c 0,19.871 -16.129,36 -36,36 -19.871,0 -36,-16.129 -36,-36 0,-19.871 16.129,-36 36,-36 19.871,0 36,16.129 36,36 z"
           style="fill:#0089eb;fill-opacity:1;fill-rule:evenodd;stroke:none;stroke-width:0.80000001;stroke-linecap:butt;stroke-linejoin:miter;stroke-miterlimit:4;stroke-dasharray:none;stroke-opacity:1"
           id="path24"
           inkscape:connector-curvature="0" />
      </g>
    </g>
  </g>
</svg>
