<?xml version="1.0" encoding="UTF-8" standalone="no"?>
<!-- Created with Inkscape (http://www.inkscape.org/) -->

<svg
   xmlns:dc="http://purl.org/dc/elements/1.1/"
   xmlns:cc="http://creativecommons.org/ns#"
   xmlns:rdf="http://www.w3.org/1999/02/22-rdf-syntax-ns#"
   xmlns:svg="http://www.w3.org/2000/svg"
   xmlns="http://www.w3.org/2000/svg"
   xmlns:sodipodi="http://sodipodi.sourceforge.net/DTD/sodipodi-0.dtd"
   xmlns:inkscape="http://www.inkscape.org/namespaces/inkscape"
   width="132mm"
   height="48mm"
   viewBox="0 0 132 48.000001"
   version="1.1"
   id="svg6648"
   inkscape:version="0.92.3 (2405546, 2018-03-11)"
   sodipodi:docname="cp_wide_en_color_borderless.svg">
  <defs
     id="defs6642" />
  <sodipodi:namedview
     id="base"
     pagecolor="#ffffff"
     bordercolor="#666666"
     borderopacity="1.0"
     inkscape:pageopacity="0.0"
     inkscape:pageshadow="2"
     inkscape:zoom="1"
     inkscape:cx="191.28511"
     inkscape:cy="266.28214"
     inkscape:document-units="mm"
     inkscape:current-layer="layer1"
     showgrid="false"
     inkscape:pagecheckerboard="true"
     inkscape:window-width="1920"
     inkscape:window-height="1027"
     inkscape:window-x="0"
     inkscape:window-y="0"
     inkscape:window-maximized="1" />
  <metadata
     id="metadata6645">
    <rdf:RDF>
      <cc:Work
         rdf:about="">
        <dc:format>image/svg+xml</dc:format>
        <dc:type
           rdf:resource="http://purl.org/dc/dcmitype/StillImage" />
        <dc:title></dc:title>
      </cc:Work>
    </rdf:RDF>
  </metadata>
  <g
     inkscape:label="Ebene 1"
     inkscape:groupmode="layer"
     id="layer1"
     transform="translate(0,-248.99999)">
    <g
       id="g94"
       transform="translate(0,9.264e-5)">
      <g
         id="g51">
        <g
           style="fill:#005cb7;fill-opacity:1;stroke:none"
           transform="matrix(0.11727979,0,0,0.11904844,-1.8639856,249.9045)"
           id="g18">
          <path
             inkscape:connector-curvature="0"
             id="path20"
             style="fill:#005cb7;fill-opacity:1;fill-rule:evenodd;stroke:none;stroke-width:0.8144443;stroke-linecap:butt;stroke-linejoin:miter;stroke-miterlimit:4;stroke-dasharray:none;stroke-opacity:1"
             d="m 218,26 c -92.742,0 -168,75.266 -168,168 0,57.047 28.492,107.48 72,137.852 V 194 c 0,-0.191 0,-0.383 0,-0.574 0,-52.992 43.008,-96 96,-96 28.285,0 53.727,12.265 71.301,31.75 L 342.301,81 C 311.562,47.219 267.238,26 218,26 Z m 69.125,234 c -17.465,18.133 -41.98,29.426 -69.125,29.426 -12.727,0 -24.883,-2.473 -36,-6.977 v 75.676 c 11.598,2.535 23.645,3.875 36,3.875 47.77,0 90.898,-19.961 121.5,-52 z" />
        </g>
        <g
           style="fill:#0089eb;fill-opacity:1;stroke:none"
           transform="matrix(0.11727979,0,0,0.11904844,-1.8639856,249.9045)"
           id="g22">
          <path
             inkscape:connector-curvature="0"
             id="path24"
             style="fill:#0089eb;fill-opacity:1;fill-rule:evenodd;stroke:none;stroke-width:0.80000001;stroke-linecap:butt;stroke-linejoin:miter;stroke-miterlimit:4;stroke-dasharray:none;stroke-opacity:1"
             d="m 254,194 c 0,19.871 -16.129,36 -36,36 -19.871,0 -36,-16.129 -36,-36 0,-19.871 16.129,-36 36,-36 19.871,0 36,16.129 36,36 z" />
        </g>
      </g>
    </g>
    <g
       aria-label="Institute of
Computational
Perception"
       transform="scale(0.98928397,1.0108321)"
       style="font-style:normal;font-variant:normal;font-weight:normal;font-stretch:normal;font-size:11.41117191px;line-height:1.25;font-family:sans-serif;-inkscape-font-specification:'sans-serif, Normal';font-variant-ligatures:normal;font-variant-caps:normal;font-variant-numeric:normal;font-feature-settings:normal;text-align:start;letter-spacing:0px;word-spacing:0px;writing-mode:lr-tb;text-anchor:start;fill:#000000;fill-opacity:1;stroke:none;stroke-width:0.3071503"
       id="text182">
      <path
         d="m 48.995989,252.22272 h 1.125516 v 8.31878 h -1.125516 z"
         style="font-style:normal;font-variant:normal;font-weight:normal;font-stretch:normal;font-size:11.41117191px;font-family:sans-serif;-inkscape-font-specification:'sans-serif, Normal';font-variant-ligatures:normal;font-variant-caps:normal;font-variant-numeric:normal;font-feature-settings:normal;text-align:start;writing-mode:lr-tb;text-anchor:start;stroke-width:0.3071503"
         id="path78" />
      <path
         d="m 57.504221,256.77493 v 3.76657 h -1.025222 v -3.73314 q 0,-0.88593 -0.345455,-1.32611 -0.345456,-0.44017 -1.036367,-0.44017 -0.830207,0 -1.309387,0.52932 -0.47918,0.52933 -0.47918,1.44312 v 3.52698 h -1.030794 v -6.24048 h 1.030794 v 0.9695 q 0.367743,-0.56275 0.863638,-0.84135 0.501468,-0.27859 1.153376,-0.27859 1.075369,0 1.626983,0.66862 0.551614,0.66305 0.551614,1.95573 z"
         style="font-style:normal;font-variant:normal;font-weight:normal;font-stretch:normal;font-size:11.41117191px;font-family:sans-serif;-inkscape-font-specification:'sans-serif, Normal';font-variant-ligatures:normal;font-variant-caps:normal;font-variant-numeric:normal;font-feature-settings:normal;text-align:start;writing-mode:lr-tb;text-anchor:start;stroke-width:0.3071503"
         id="path80" />
      <path
         d="m 63.538547,254.48489 v 0.9695 q -0.434605,-0.22287 -0.902641,-0.33431 -0.468037,-0.11143 -0.969504,-0.11143 -0.763345,0 -1.147804,0.23401 -0.378886,0.23402 -0.378886,0.70206 0,0.3566 0.273021,0.56276 0.273021,0.20058 1.097657,0.38445 l 0.351027,0.078 q 1.092085,0.23402 1.548977,0.66305 0.462465,0.42346 0.462465,1.18681 0,0.86921 -0.690911,1.37625 -0.685339,0.50704 -1.888861,0.50704 -0.501467,0 -1.04751,-0.1003 -0.54047,-0.0947 -1.142231,-0.28973 v -1.05866 q 0.568329,0.29531 1.119944,0.44575 0.551614,0.14487 1.092085,0.14487 0.724342,0 1.114372,-0.24516 0.39003,-0.25073 0.39003,-0.70206 0,-0.41788 -0.284165,-0.64076 -0.278593,-0.22287 -1.231381,-0.42903 l -0.356599,-0.0836 q -0.952789,-0.20059 -1.37625,-0.61291 -0.423462,-0.41788 -0.423462,-1.14223 0,-0.88035 0.624049,-1.35953 0.624048,-0.47918 1.771852,-0.47918 0.56833,0 1.069797,0.0836 0.501468,0.0836 0.924929,0.25073 z"
         style="font-style:normal;font-variant:normal;font-weight:normal;font-stretch:normal;font-size:11.41117191px;font-family:sans-serif;-inkscape-font-specification:'sans-serif, Normal';font-variant-ligatures:normal;font-variant-caps:normal;font-variant-numeric:normal;font-feature-settings:normal;text-align:start;writing-mode:lr-tb;text-anchor:start;stroke-width:0.3071503"
         id="path82" />
      <path
         d="m 66.525065,252.52917 v 1.77185 h 2.111736 v 0.79678 h -2.111736 v 3.38769 q 0,0.76334 0.206159,0.98064 0.211731,0.21731 0.852495,0.21731 h 1.053082 v 0.85806 h -1.053082 q -1.186806,0 -1.638127,-0.44017 -0.451321,-0.44575 -0.451321,-1.61584 V 255.0978 H 64.74207 v -0.79678 h 0.752201 v -1.77185 z"
         style="font-style:normal;font-variant:normal;font-weight:normal;font-stretch:normal;font-size:11.41117191px;font-family:sans-serif;-inkscape-font-specification:'sans-serif, Normal';font-variant-ligatures:normal;font-variant-caps:normal;font-variant-numeric:normal;font-feature-settings:normal;text-align:start;writing-mode:lr-tb;text-anchor:start;stroke-width:0.3071503"
         id="path84" />
      <path
         d="m 69.990763,254.30102 h 1.025223 v 6.24048 h -1.025223 z m 0,-2.42933 h 1.025223 v 1.29824 h -1.025223 z"
         style="font-style:normal;font-variant:normal;font-weight:normal;font-stretch:normal;font-size:11.41117191px;font-family:sans-serif;-inkscape-font-specification:'sans-serif, Normal';font-variant-ligatures:normal;font-variant-caps:normal;font-variant-numeric:normal;font-feature-settings:normal;text-align:start;writing-mode:lr-tb;text-anchor:start;stroke-width:0.3071503"
         id="path86" />
      <path
         d="m 74.169658,252.52917 v 1.77185 h 2.111735 v 0.79678 h -2.111735 v 3.38769 q 0,0.76334 0.206159,0.98064 0.21173,0.21731 0.852494,0.21731 h 1.053082 v 0.85806 h -1.053082 q -1.186806,0 -1.638127,-0.44017 -0.451321,-0.44575 -0.451321,-1.61584 v -3.38769 h -0.752201 v -0.79678 h 0.752201 v -1.77185 z"
         style="font-style:normal;font-variant:normal;font-weight:normal;font-stretch:normal;font-size:11.41117191px;font-family:sans-serif;-inkscape-font-specification:'sans-serif, Normal';font-variant-ligatures:normal;font-variant-caps:normal;font-variant-numeric:normal;font-feature-settings:normal;text-align:start;writing-mode:lr-tb;text-anchor:start;stroke-width:0.3071503"
         id="path88" />
      <path
         d="m 77.52949,258.07874 v -3.77772 h 1.025222 v 3.73872 q 0,0.88592 0.345456,1.33167 0.345455,0.44018 1.036366,0.44018 0.830207,0 1.309387,-0.52933 0.484752,-0.52932 0.484752,-1.44311 v -3.53813 h 1.025223 v 6.24048 h -1.025223 v -0.95836 q -0.373314,0.56833 -0.86921,0.84693 -0.490324,0.27302 -1.142232,0.27302 -1.075369,0 -1.632555,-0.66863 -0.557186,-0.66862 -0.557186,-1.95572 z m 2.579772,-3.92816 z"
         style="font-style:normal;font-variant:normal;font-weight:normal;font-stretch:normal;font-size:11.41117191px;font-family:sans-serif;-inkscape-font-specification:'sans-serif, Normal';font-variant-ligatures:normal;font-variant-caps:normal;font-variant-numeric:normal;font-feature-settings:normal;text-align:start;writing-mode:lr-tb;text-anchor:start;stroke-width:0.3071503"
         id="path90" />
      <path
         d="m 85.892854,252.52917 v 1.77185 h 2.111735 v 0.79678 h -2.111735 v 3.38769 q 0,0.76334 0.206159,0.98064 0.21173,0.21731 0.852494,0.21731 h 1.053082 v 0.85806 h -1.053082 q -1.186806,0 -1.638127,-0.44017 -0.451321,-0.44575 -0.451321,-1.61584 v -3.38769 h -0.752201 v -0.79678 h 0.752201 v -1.77185 z"
         style="font-style:normal;font-variant:normal;font-weight:normal;font-stretch:normal;font-size:11.41117191px;font-family:sans-serif;-inkscape-font-specification:'sans-serif, Normal';font-variant-ligatures:normal;font-variant-caps:normal;font-variant-numeric:normal;font-feature-settings:normal;text-align:start;writing-mode:lr-tb;text-anchor:start;stroke-width:0.3071503"
         id="path92" />
      <path
         d="m 94.696396,257.16496 v 0.50146 h -4.713794 q 0.06686,1.05866 0.635192,1.61584 0.573902,0.55162 1.593552,0.55162 0.590618,0 1.142232,-0.14487 0.557186,-0.14487 1.103228,-0.43461 v 0.96951 q -0.551614,0.23402 -1.131087,0.3566 -0.579474,0.12258 -1.175663,0.12258 -1.493259,0 -2.368041,-0.86921 -0.869211,-0.86921 -0.869211,-2.35133 0,-1.53226 0.824636,-2.42933 0.830207,-0.90264 2.234316,-0.90264 1.259241,0 1.989155,0.81349 0.735485,0.80792 0.735485,2.20089 z m -1.025222,-0.30088 q -0.01114,-0.84136 -0.473608,-1.34282 -0.456893,-0.50147 -1.214666,-0.50147 -0.858067,0 -1.37625,0.48475 -0.512611,0.48475 -0.590617,1.36511 z"
         style="font-style:normal;font-variant:normal;font-weight:normal;font-stretch:normal;font-size:11.41117191px;font-family:sans-serif;-inkscape-font-specification:'sans-serif, Normal';font-variant-ligatures:normal;font-variant-caps:normal;font-variant-numeric:normal;font-feature-settings:normal;text-align:start;writing-mode:lr-tb;text-anchor:start;stroke-width:0.3071503"
         id="path94" />
      <path
         d="m 102.43014,255.01979 q -0.82464,0 -1.30382,0.64634 -0.47918,0.64076 -0.47918,1.7607 0,1.11995 0.47361,1.76628 0.47918,0.64077 1.30939,0.64077 0.81906,0 1.29824,-0.64634 0.47918,-0.64633 0.47918,-1.76071 0,-1.1088 -0.47918,-1.75513 -0.47918,-0.65191 -1.29824,-0.65191 z m 0,-0.86921 q 1.33724,0 2.10059,0.86921 0.76334,0.86921 0.76334,2.40704 0,1.53227 -0.76334,2.40705 -0.76335,0.86921 -2.10059,0.86921 -1.34282,0 -2.10617,-0.86921 -0.757769,-0.87478 -0.757769,-2.40705 0,-1.53783 0.757769,-2.40704 0.76335,-0.86921 2.10617,-0.86921 z"
         style="font-style:normal;font-variant:normal;font-weight:normal;font-stretch:normal;font-size:11.41117191px;font-family:sans-serif;-inkscape-font-specification:'sans-serif, Normal';font-variant-ligatures:normal;font-variant-caps:normal;font-variant-numeric:normal;font-feature-settings:normal;text-align:start;writing-mode:lr-tb;text-anchor:start;stroke-width:0.3071503"
         id="path96" />
      <path
         d="m 110.14717,251.87169 v 0.85249 h -0.98065 q -0.55162,0 -0.76892,0.22288 -0.21173,0.22287 -0.21173,0.80234 v 0.55162 h 1.68828 v 0.79678 h -1.68828 v 5.4437 h -1.03079 v -5.4437 h -0.98065 v -0.79678 h 0.98065 v -0.43461 q 0,-1.04193 0.48475,-1.51554 0.48475,-0.47918 1.53783,-0.47918 z"
         style="font-style:normal;font-variant:normal;font-weight:normal;font-stretch:normal;font-size:11.41117191px;font-family:sans-serif;-inkscape-font-specification:'sans-serif, Normal';font-variant-ligatures:normal;font-variant-caps:normal;font-variant-numeric:normal;font-feature-settings:normal;text-align:start;writing-mode:lr-tb;text-anchor:start;stroke-width:0.3071503"
         id="path98" />
      <path
         d="m 55.22533,267.12744 v 1.18681 q -0.56833,-0.52933 -1.214665,-0.7912 -0.640765,-0.26188 -1.365107,-0.26188 -1.426396,0 -2.184169,0.87478 -0.757773,0.86921 -0.757773,2.51848 0,1.6437 0.757773,2.51848 0.757773,0.86921 2.184169,0.86921 0.724342,0 1.365107,-0.26187 0.646335,-0.26188 1.214665,-0.79121 v 1.17566 q -0.590617,0.40118 -1.253669,0.60177 -0.657479,0.20058 -1.392965,0.20058 -1.888861,0 -2.975374,-1.15337 -1.086513,-1.15895 -1.086513,-3.15925 0,-2.00587 1.086513,-3.15924 1.086513,-1.15895 2.975374,-1.15895 0.74663,0 1.404109,0.20059 0.663052,0.19501 1.242525,0.59061 z"
         style="font-style:normal;font-variant:normal;font-weight:normal;font-stretch:normal;font-size:11.41117191px;font-family:sans-serif;-inkscape-font-specification:'sans-serif, Normal';font-variant-ligatures:normal;font-variant-caps:normal;font-variant-numeric:normal;font-feature-settings:normal;text-align:start;writing-mode:lr-tb;text-anchor:start;stroke-width:0.3071503"
         id="path100" />
      <path
         d="m 59.348507,269.28375 q -0.824635,0 -1.303815,0.64634 -0.47918,0.64076 -0.47918,1.76071 0,1.11994 0.473608,1.76628 0.47918,0.64076 1.309387,0.64076 0.819064,0 1.298244,-0.64633 0.47918,-0.64634 0.47918,-1.76071 0,-1.1088 -0.47918,-1.75514 -0.47918,-0.65191 -1.298244,-0.65191 z m 0,-0.86921 q 1.337247,0 2.100592,0.86921 0.763345,0.86921 0.763345,2.40705 0,1.53226 -0.763345,2.40704 -0.763345,0.86921 -2.100592,0.86921 -1.342818,0 -2.106163,-0.86921 -0.757773,-0.87478 -0.757773,-2.40704 0,-1.53784 0.757773,-2.40705 0.763345,-0.86921 2.106163,-0.86921 z"
         style="font-style:normal;font-variant:normal;font-weight:normal;font-stretch:normal;font-size:11.41117191px;font-family:sans-serif;-inkscape-font-specification:'sans-serif, Normal';font-variant-ligatures:normal;font-variant-caps:normal;font-variant-numeric:normal;font-feature-settings:normal;text-align:start;writing-mode:lr-tb;text-anchor:start;stroke-width:0.3071503"
         id="path102" />
      <path
         d="m 68.764953,269.76293 q 0.384459,-0.69091 0.919358,-1.01965 0.534898,-0.32874 1.25924,-0.32874 0.975076,0 1.504403,0.68534 0.529327,0.67977 0.529327,1.93901 v 3.76658 h -1.030795 v -3.73315 q 0,-0.89707 -0.317596,-1.33167 -0.317596,-0.43461 -0.969504,-0.43461 -0.796776,0 -1.25924,0.52933 -0.462465,0.52933 -0.462465,1.44311 v 3.52699 h -1.030794 v -3.73315 q 0,-0.90264 -0.317596,-1.33167 -0.317596,-0.43461 -0.980648,-0.43461 -0.785632,0 -1.248097,0.5349 -0.462464,0.52933 -0.462464,1.43754 v 3.52699 h -1.030795 v -6.24049 h 1.030795 v 0.96951 q 0.351027,-0.5739 0.841351,-0.84692 0.490324,-0.27303 1.164519,-0.27303 0.679767,0 1.153375,0.34546 0.47918,0.34545 0.707626,1.00293 z"
         style="font-style:normal;font-variant:normal;font-weight:normal;font-stretch:normal;font-size:11.41117191px;font-family:sans-serif;-inkscape-font-specification:'sans-serif, Normal';font-variant-ligatures:normal;font-variant-caps:normal;font-variant-numeric:normal;font-feature-settings:normal;text-align:start;writing-mode:lr-tb;text-anchor:start;stroke-width:0.3071503"
         id="path104" />
      <path
         d="m 76.019517,273.8694 v 3.30968 h -1.030794 v -8.6141 h 1.030794 v 0.94722 q 0.323168,-0.55719 0.813492,-0.82463 0.495895,-0.27303 1.181234,-0.27303 1.13666,0 1.844286,0.90265 0.713199,0.90264 0.713199,2.37361 0,1.47097 -0.713199,2.37361 -0.707626,0.90264 -1.844286,0.90264 -0.685339,0 -1.181234,-0.26745 -0.490324,-0.27302 -0.813492,-0.8302 z m 3.487985,-2.1786 q 0,-1.13109 -0.468036,-1.77185 -0.462465,-0.64634 -1.275957,-0.64634 -0.813491,0 -1.281528,0.64634 -0.462464,0.64076 -0.462464,1.77185 0,1.13109 0.462464,1.77742 0.468037,0.64077 1.281528,0.64077 0.813492,0 1.275957,-0.64077 0.468036,-0.64633 0.468036,-1.77742 z"
         style="font-style:normal;font-variant:normal;font-weight:normal;font-stretch:normal;font-size:11.41117191px;font-family:sans-serif;-inkscape-font-specification:'sans-serif, Normal';font-variant-ligatures:normal;font-variant-caps:normal;font-variant-numeric:normal;font-feature-settings:normal;text-align:start;writing-mode:lr-tb;text-anchor:start;stroke-width:0.3071503"
         id="path106" />
      <path
         d="m 82.165278,272.34271 v -3.77773 H 83.1905 v 3.73872 q 0,0.88593 0.345456,1.33168 0.345455,0.44017 1.036366,0.44017 0.830207,0 1.309387,-0.52932 0.484752,-0.52933 0.484752,-1.44311 v -3.53814 h 1.025223 v 6.24049 h -1.025223 v -0.95836 q -0.373314,0.56833 -0.86921,0.84692 -0.490324,0.27302 -1.142232,0.27302 -1.075369,0 -1.632555,-0.66862 -0.557186,-0.66862 -0.557186,-1.95572 z m 2.579772,-3.92817 z"
         style="font-style:normal;font-variant:normal;font-weight:normal;font-stretch:normal;font-size:11.41117191px;font-family:sans-serif;-inkscape-font-specification:'sans-serif, Normal';font-variant-ligatures:normal;font-variant-caps:normal;font-variant-numeric:normal;font-feature-settings:normal;text-align:start;writing-mode:lr-tb;text-anchor:start;stroke-width:0.3071503"
         id="path108" />
      <path
         d="m 90.528642,266.79313 v 1.77185 h 2.111735 v 0.79678 h -2.111735 v 3.38769 q 0,0.76335 0.206159,0.98065 0.21173,0.2173 0.852494,0.2173 h 1.053082 v 0.85807 h -1.053082 q -1.186806,0 -1.638127,-0.44018 -0.451321,-0.44575 -0.451321,-1.61584 v -3.38769 h -0.752201 v -0.79678 h 0.752201 v -1.77185 z"
         style="font-style:normal;font-variant:normal;font-weight:normal;font-stretch:normal;font-size:11.41117191px;font-family:sans-serif;-inkscape-font-specification:'sans-serif, Normal';font-variant-ligatures:normal;font-variant-caps:normal;font-variant-numeric:normal;font-feature-settings:normal;text-align:start;writing-mode:lr-tb;text-anchor:start;stroke-width:0.3071503"
         id="path110" />
      <path
         d="m 96.830419,271.66851 q -1.242525,0 -1.721705,0.28417 -0.479181,0.28416 -0.479181,0.9695 0,0.54604 0.3566,0.86921 0.362171,0.3176 0.980647,0.3176 0.852495,0 1.365106,-0.60176 0.518183,-0.60734 0.518183,-1.61027 v -0.22845 z m 2.044873,-0.42346 v 3.56042 h -1.025223 v -0.94722 q -0.351027,0.56833 -0.874782,0.84135 -0.523755,0.26745 -1.281528,0.26745 -0.95836,0 -1.52669,-0.5349 -0.562758,-0.54047 -0.562758,-1.44311 0,-1.05308 0.702054,-1.58798 0.707627,-0.5349 2.106164,-0.5349 h 1.43754 v -0.10029 q 0,-0.70763 -0.468036,-1.09209 -0.462465,-0.39003 -1.303816,-0.39003 -0.534898,0 -1.041938,0.12816 -0.507039,0.12815 -0.975075,0.38446 v -0.94722 q 0.562758,-0.2173 1.092084,-0.32317 0.529327,-0.11144 1.030795,-0.11144 1.353962,0 2.022585,0.70206 0.668624,0.70205 0.668624,2.12845 z"
         style="font-style:normal;font-variant:normal;font-weight:normal;font-stretch:normal;font-size:11.41117191px;font-family:sans-serif;-inkscape-font-specification:'sans-serif, Normal';font-variant-ligatures:normal;font-variant-caps:normal;font-variant-numeric:normal;font-feature-settings:normal;text-align:start;writing-mode:lr-tb;text-anchor:start;stroke-width:0.3071503"
         id="path112" />
      <path
         d="m 102.00668,266.79313 v 1.77185 h 2.11173 v 0.79678 h -2.11173 v 3.38769 q 0,0.76335 0.20616,0.98065 0.21173,0.2173 0.85249,0.2173 h 1.05308 v 0.85807 h -1.05308 q -1.18681,0 -1.63813,-0.44018 -0.45132,-0.44575 -0.45132,-1.61584 v -3.38769 h -0.7522 v -0.79678 h 0.7522 v -1.77185 z"
         style="font-style:normal;font-variant:normal;font-weight:normal;font-stretch:normal;font-size:11.41117191px;font-family:sans-serif;-inkscape-font-specification:'sans-serif, Normal';font-variant-ligatures:normal;font-variant-caps:normal;font-variant-numeric:normal;font-feature-settings:normal;text-align:start;writing-mode:lr-tb;text-anchor:start;stroke-width:0.3071503"
         id="path114" />
      <path
         d="m 105.47238,268.56498 h 1.02522 v 6.24049 h -1.02522 z m 0,-2.42933 h 1.02522 v 1.29825 h -1.02522 z"
         style="font-style:normal;font-variant:normal;font-weight:normal;font-stretch:normal;font-size:11.41117191px;font-family:sans-serif;-inkscape-font-specification:'sans-serif, Normal';font-variant-ligatures:normal;font-variant-caps:normal;font-variant-numeric:normal;font-feature-settings:normal;text-align:start;writing-mode:lr-tb;text-anchor:start;stroke-width:0.3071503"
         id="path116" />
      <path
         d="m 111.05538,269.28375 q -0.82464,0 -1.30382,0.64634 -0.47918,0.64076 -0.47918,1.76071 0,1.11994 0.47361,1.76628 0.47918,0.64076 1.30939,0.64076 0.81906,0 1.29824,-0.64633 0.47918,-0.64634 0.47918,-1.76071 0,-1.1088 -0.47918,-1.75514 -0.47918,-0.65191 -1.29824,-0.65191 z m 0,-0.86921 q 1.33724,0 2.10059,0.86921 0.76334,0.86921 0.76334,2.40705 0,1.53226 -0.76334,2.40704 -0.76335,0.86921 -2.10059,0.86921 -1.34282,0 -2.10617,-0.86921 -0.75777,-0.87478 -0.75777,-2.40704 0,-1.53784 0.75777,-2.40705 0.76335,-0.86921 2.10617,-0.86921 z"
         style="font-style:normal;font-variant:normal;font-weight:normal;font-stretch:normal;font-size:11.41117191px;font-family:sans-serif;-inkscape-font-specification:'sans-serif, Normal';font-variant-ligatures:normal;font-variant-caps:normal;font-variant-numeric:normal;font-feature-settings:normal;text-align:start;writing-mode:lr-tb;text-anchor:start;stroke-width:0.3071503"
         id="path118" />
      <path
         d="m 120.80057,271.03889 v 3.76658 h -1.02522 v -3.73315 q 0,-0.88592 -0.34546,-1.3261 -0.34546,-0.44018 -1.03637,-0.44018 -0.8302,0 -1.30938,0.52933 -0.47918,0.52933 -0.47918,1.44311 v 3.52699 h -1.0308 v -6.24049 h 1.0308 v 0.96951 q 0.36774,-0.56276 0.86364,-0.84135 0.50146,-0.2786 1.15337,-0.2786 1.07537,0 1.62698,0.66863 0.55162,0.66305 0.55162,1.95572 z"
         style="font-style:normal;font-variant:normal;font-weight:normal;font-stretch:normal;font-size:11.41117191px;font-family:sans-serif;-inkscape-font-specification:'sans-serif, Normal';font-variant-ligatures:normal;font-variant-caps:normal;font-variant-numeric:normal;font-feature-settings:normal;text-align:start;writing-mode:lr-tb;text-anchor:start;stroke-width:0.3071503"
         id="path120" />
      <path
         d="m 125.69266,271.66851 q -1.24253,0 -1.72171,0.28417 -0.47918,0.28416 -0.47918,0.9695 0,0.54604 0.3566,0.86921 0.36217,0.3176 0.98065,0.3176 0.85249,0 1.36511,-0.60176 0.51818,-0.60734 0.51818,-1.61027 v -0.22845 z m 2.04487,-0.42346 v 3.56042 h -1.02522 v -0.94722 q -0.35103,0.56833 -0.87478,0.84135 -0.52376,0.26745 -1.28153,0.26745 -0.95836,0 -1.52669,-0.5349 -0.56276,-0.54047 -0.56276,-1.44311 0,-1.05308 0.70206,-1.58798 0.70762,-0.5349 2.10616,-0.5349 h 1.43754 v -0.10029 q 0,-0.70763 -0.46804,-1.09209 -0.46246,-0.39003 -1.30381,-0.39003 -0.5349,0 -1.04194,0.12816 -0.50704,0.12815 -0.97508,0.38446 v -0.94722 q 0.56276,-0.2173 1.09209,-0.32317 0.52933,-0.11144 1.03079,-0.11144 1.35396,0 2.02259,0.70206 0.66862,0.70205 0.66862,2.12845 z"
         style="font-style:normal;font-variant:normal;font-weight:normal;font-stretch:normal;font-size:11.41117191px;font-family:sans-serif;-inkscape-font-specification:'sans-serif, Normal';font-variant-ligatures:normal;font-variant-caps:normal;font-variant-numeric:normal;font-feature-settings:normal;text-align:start;writing-mode:lr-tb;text-anchor:start;stroke-width:0.3071503"
         id="path122" />
      <path
         d="m 129.85484,266.13565 h 1.02522 v 8.66982 h -1.02522 z"
         style="font-style:normal;font-variant:normal;font-weight:normal;font-stretch:normal;font-size:11.41117191px;font-family:sans-serif;-inkscape-font-specification:'sans-serif, Normal';font-variant-ligatures:normal;font-variant-caps:normal;font-variant-numeric:normal;font-feature-settings:normal;text-align:start;writing-mode:lr-tb;text-anchor:start;stroke-width:0.3071503"
         id="path124" />
      <path
         d="m 50.121505,281.67557 v 3.12582 h 1.415253 q 0.785633,0 1.214666,-0.40675 0.429033,-0.40674 0.429033,-1.15895 0,-0.74662 -0.429033,-1.15337 -0.429033,-0.40675 -1.214666,-0.40675 z m -1.125516,-0.92493 h 2.540769 q 1.398537,0 2.111736,0.6352 0.71877,0.62962 0.71877,1.84985 0,1.23139 -0.71877,1.86101 -0.713199,0.62962 -2.111736,0.62962 h -1.415253 v 3.34311 h -1.125516 z"
         style="font-style:normal;font-variant:normal;font-weight:normal;font-stretch:normal;font-size:11.41117191px;font-family:sans-serif;-inkscape-font-specification:'sans-serif, Normal';font-variant-ligatures:normal;font-variant-caps:normal;font-variant-numeric:normal;font-feature-settings:normal;text-align:start;writing-mode:lr-tb;text-anchor:start;stroke-width:0.3071503"
         id="path126" />
      <path
         d="m 60.774904,285.69289 v 0.50146 H 56.06111 q 0.06686,1.05866 0.635192,1.61584 0.573902,0.55162 1.593552,0.55162 0.590617,0 1.142232,-0.14487 0.557186,-0.14487 1.103228,-0.43461 v 0.96951 q -0.551614,0.23402 -1.131088,0.3566 -0.579473,0.12258 -1.175662,0.12258 -1.493259,0 -2.368041,-0.86921 -0.869211,-0.86921 -0.869211,-2.35133 0,-1.53226 0.824636,-2.42933 0.830207,-0.90264 2.234316,-0.90264 1.259241,0 1.989155,0.81349 0.735485,0.80792 0.735485,2.20089 z m -1.025222,-0.30088 q -0.01114,-0.84136 -0.473608,-1.34282 -0.456893,-0.50147 -1.214666,-0.50147 -0.858067,0 -1.37625,0.48475 -0.512611,0.48475 -0.590617,1.36511 z"
         style="font-style:normal;font-variant:normal;font-weight:normal;font-stretch:normal;font-size:11.41117191px;font-family:sans-serif;-inkscape-font-specification:'sans-serif, Normal';font-variant-ligatures:normal;font-variant-caps:normal;font-variant-numeric:normal;font-feature-settings:normal;text-align:start;writing-mode:lr-tb;text-anchor:start;stroke-width:0.3071503"
         id="path128" />
      <path
         d="m 66.073744,283.78731 q -0.172728,-0.10029 -0.378887,-0.14487 -0.200587,-0.0502 -0.445749,-0.0502 -0.86921,0 -1.337246,0.56833 -0.462465,0.56276 -0.462465,1.62142 v 3.28739 h -1.030794 v -6.24048 h 1.030794 v 0.9695 q 0.323168,-0.56833 0.841351,-0.84135 0.518183,-0.27859 1.259241,-0.27859 0.105865,0 0.234018,0.0167 0.128153,0.0111 0.284165,0.039 z"
         style="font-style:normal;font-variant:normal;font-weight:normal;font-stretch:normal;font-size:11.41117191px;font-family:sans-serif;-inkscape-font-specification:'sans-serif, Normal';font-variant-ligatures:normal;font-variant-caps:normal;font-variant-numeric:normal;font-feature-settings:normal;text-align:start;writing-mode:lr-tb;text-anchor:start;stroke-width:0.3071503"
         id="path130" />
      <path
         d="m 71.406015,283.06854 v 0.95836 q -0.434605,-0.23959 -0.874782,-0.3566 -0.434605,-0.12258 -0.880354,-0.12258 -0.997364,0 -1.548978,0.63519 -0.551614,0.62962 -0.551614,1.77185 0,1.14223 0.551614,1.77743 0.551614,0.62962 1.548978,0.62962 0.445749,0 0.880354,-0.11701 0.440177,-0.12258 0.874782,-0.36217 v 0.94721 q -0.429033,0.20059 -0.891498,0.30088 -0.456893,0.1003 -0.975076,0.1003 -1.409681,0 -2.239888,-0.88593 -0.830207,-0.88592 -0.830207,-2.39033 0,-1.52669 0.835779,-2.40147 0.841351,-0.87478 2.301179,-0.87478 0.473608,0 0.924929,0.10029 0.45132,0.0947 0.874782,0.28974 z"
         style="font-style:normal;font-variant:normal;font-weight:normal;font-stretch:normal;font-size:11.41117191px;font-family:sans-serif;-inkscape-font-specification:'sans-serif, Normal';font-variant-ligatures:normal;font-variant-caps:normal;font-variant-numeric:normal;font-feature-settings:normal;text-align:start;writing-mode:lr-tb;text-anchor:start;stroke-width:0.3071503"
         id="path132" />
      <path
         d="m 78.537999,285.69289 v 0.50146 h -4.713795 q 0.06686,1.05866 0.635192,1.61584 0.573902,0.55162 1.593553,0.55162 0.590617,0 1.142231,-0.14487 0.557186,-0.14487 1.103229,-0.43461 v 0.96951 q -0.551615,0.23402 -1.131088,0.3566 -0.579474,0.12258 -1.175663,0.12258 -1.493259,0 -2.368041,-0.86921 -0.86921,-0.86921 -0.86921,-2.35133 0,-1.53226 0.824635,-2.42933 0.830208,-0.90264 2.234317,-0.90264 1.25924,0 1.989154,0.81349 0.735486,0.80792 0.735486,2.20089 z m -1.025223,-0.30088 q -0.01114,-0.84136 -0.473608,-1.34282 -0.456893,-0.50147 -1.214666,-0.50147 -0.858066,0 -1.376249,0.48475 -0.512612,0.48475 -0.590618,1.36511 z"
         style="font-style:normal;font-variant:normal;font-weight:normal;font-stretch:normal;font-size:11.41117191px;font-family:sans-serif;-inkscape-font-specification:'sans-serif, Normal';font-variant-ligatures:normal;font-variant-caps:normal;font-variant-numeric:normal;font-feature-settings:normal;text-align:start;writing-mode:lr-tb;text-anchor:start;stroke-width:0.3071503"
         id="path134" />
      <path
         d="m 81.212491,288.13336 v 3.30969 h -1.030794 v -8.6141 h 1.030794 v 0.94722 q 0.323168,-0.55719 0.813492,-0.82464 0.495895,-0.27302 1.181234,-0.27302 1.13666,0 1.844286,0.90264 0.713199,0.90264 0.713199,2.37361 0,1.47097 -0.713199,2.37362 -0.707626,0.90264 -1.844286,0.90264 -0.685339,0 -1.181234,-0.26745 -0.490324,-0.27302 -0.813492,-0.83021 z m 3.487985,-2.1786 q 0,-1.13108 -0.468036,-1.77185 -0.462465,-0.64633 -1.275956,-0.64633 -0.813492,0 -1.281529,0.64633 -0.462464,0.64077 -0.462464,1.77185 0,1.13109 0.462464,1.77743 0.468037,0.64076 1.281529,0.64076 0.813491,0 1.275956,-0.64076 0.468036,-0.64634 0.468036,-1.77743 z"
         style="font-style:normal;font-variant:normal;font-weight:normal;font-stretch:normal;font-size:11.41117191px;font-family:sans-serif;-inkscape-font-specification:'sans-serif, Normal';font-variant-ligatures:normal;font-variant-caps:normal;font-variant-numeric:normal;font-feature-settings:normal;text-align:start;writing-mode:lr-tb;text-anchor:start;stroke-width:0.3071503"
         id="path136" />
      <path
         d="m 88.478196,281.0571 v 1.77185 h 2.111736 v 0.79678 h -2.111736 v 3.38769 q 0,0.76334 0.206159,0.98064 0.211731,0.21731 0.852495,0.21731 h 1.053082 v 0.85806 H 89.53685 q -1.186807,0 -1.638127,-0.44017 -0.451321,-0.44575 -0.451321,-1.61584 v -3.38769 h -0.752201 v -0.79678 h 0.752201 v -1.77185 z"
         style="font-style:normal;font-variant:normal;font-weight:normal;font-stretch:normal;font-size:11.41117191px;font-family:sans-serif;-inkscape-font-specification:'sans-serif, Normal';font-variant-ligatures:normal;font-variant-caps:normal;font-variant-numeric:normal;font-feature-settings:normal;text-align:start;writing-mode:lr-tb;text-anchor:start;stroke-width:0.3071503"
         id="path138" />
      <path
         d="m 91.943896,282.82895 h 1.025222 v 6.24048 h -1.025222 z m 0,-2.42933 h 1.025222 v 1.29824 h -1.025222 z"
         style="font-style:normal;font-variant:normal;font-weight:normal;font-stretch:normal;font-size:11.41117191px;font-family:sans-serif;-inkscape-font-specification:'sans-serif, Normal';font-variant-ligatures:normal;font-variant-caps:normal;font-variant-numeric:normal;font-feature-settings:normal;text-align:start;writing-mode:lr-tb;text-anchor:start;stroke-width:0.3071503"
         id="path140" />
      <path
         d="m 97.526901,283.54772 q -0.824635,0 -1.303815,0.64634 -0.47918,0.64076 -0.47918,1.7607 0,1.11995 0.473608,1.76628 0.47918,0.64077 1.309387,0.64077 0.819064,0 1.298244,-0.64634 0.47918,-0.64633 0.47918,-1.76071 0,-1.1088 -0.47918,-1.75513 -0.47918,-0.65191 -1.298244,-0.65191 z m 0,-0.86921 q 1.337247,0 2.100592,0.86921 0.763347,0.86921 0.763347,2.40704 0,1.53227 -0.763347,2.40705 -0.763345,0.86921 -2.100592,0.86921 -1.342818,0 -2.106163,-0.86921 -0.757773,-0.87478 -0.757773,-2.40705 0,-1.53783 0.757773,-2.40704 0.763345,-0.86921 2.106163,-0.86921 z"
         style="font-style:normal;font-variant:normal;font-weight:normal;font-stretch:normal;font-size:11.41117191px;font-family:sans-serif;-inkscape-font-specification:'sans-serif, Normal';font-variant-ligatures:normal;font-variant-caps:normal;font-variant-numeric:normal;font-feature-settings:normal;text-align:start;writing-mode:lr-tb;text-anchor:start;stroke-width:0.3071503"
         id="path142" />
      <path
         d="m 107.27209,285.30286 v 3.76657 h -1.02522 v -3.73314 q 0,-0.88593 -0.34546,-1.32611 -0.34546,-0.44017 -1.03637,-0.44017 -0.8302,0 -1.30938,0.52932 -0.47918,0.52933 -0.47918,1.44312 v 3.52698 h -1.0308 v -6.24048 h 1.0308 v 0.9695 q 0.36774,-0.56276 0.86363,-0.84135 0.50147,-0.27859 1.15338,-0.27859 1.07537,0 1.62698,0.66862 0.55162,0.66305 0.55162,1.95573 z"
         style="font-style:normal;font-variant:normal;font-weight:normal;font-stretch:normal;font-size:11.41117191px;font-family:sans-serif;-inkscape-font-specification:'sans-serif, Normal';font-variant-ligatures:normal;font-variant-caps:normal;font-variant-numeric:normal;font-feature-settings:normal;text-align:start;writing-mode:lr-tb;text-anchor:start;stroke-width:0.3071503"
         id="path144" />
    </g>
  </g>
</svg>
