<?xml version="1.0" encoding="UTF-8" standalone="no"?>
<!-- Created with Inkscape (http://www.inkscape.org/) -->

<svg
   width="512mm"
   height="512mm"
   viewBox="0 0 512 512"
   version="1.1"
   id="svg5"
   inkscape:version="1.1.1 (eb90963e84, 2021-10-02)"
   sodipodi:docname="match_logo.svg"
   xmlns:inkscape="http://www.inkscape.org/namespaces/inkscape"
   xmlns:sodipodi="http://sodipodi.sourceforge.net/DTD/sodipodi-0.dtd"
   xmlns:xlink="http://www.w3.org/1999/xlink"
   xmlns="http://www.w3.org/2000/svg"
   xmlns:svg="http://www.w3.org/2000/svg">
  <sodipodi:namedview
     id="namedview7"
     pagecolor="#ffffff"
     bordercolor="#666666"
     borderopacity="1.0"
     inkscape:pageshadow="2"
     inkscape:pageopacity="0.0"
     inkscape:pagecheckerboard="0"
     inkscape:document-units="mm"
     showgrid="false"
     inkscape:zoom="0.37593996"
     inkscape:cx="639.72981"
     inkscape:cy="1360.5896"
     inkscape:window-width="1848"
     inkscape:window-height="1016"
     inkscape:window-x="72"
     inkscape:window-y="27"
     inkscape:window-maximized="1"
     inkscape:current-layer="g700"
     width="512mm" />
  <defs
     id="defs2">
    <linearGradient
       inkscape:collect="always"
       id="linearGradient6088">
      <stop
         style="stop-color:#570000;stop-opacity:1;"
         offset="0"
         id="stop6084" />
      <stop
         style="stop-color:#570000;stop-opacity:0;"
         offset="1"
         id="stop6086" />
    </linearGradient>
    <linearGradient
       inkscape:collect="always"
       id="linearGradient5742">
      <stop
         style="stop-color:#570000;stop-opacity:1;"
         offset="0"
         id="stop5738" />
      <stop
         style="stop-color:#570000;stop-opacity:0;"
         offset="1"
         id="stop5740" />
    </linearGradient>
    <inkscape:path-effect
       effect="skeletal"
       id="path-effect3893"
       is_visible="true"
       lpeversion="1"
       pattern="m 369.70366,607.13655 c -1.42098,-5.21746 6.3358,-4.49792 8.68065,-2.37676 6.35705,5.75059 2.24015,15.73538 -3.88638,19.72681 -10.95108,7.1346 -25.18202,0.62797 -30.77297,-10.14954 -8.20246,-15.81162 0.96058,-34.78218 16.41269,-41.81912 20.59173,-9.37755 44.44027,2.53478 52.86528,22.67583 10.60085,25.34272 -4.10069,54.12682 -28.93899,63.91144 -30.08025,11.84959 -63.82955,-5.66163 -74.95759,-35.20213 -13.11329,-34.81054 7.21943,-73.54241 41.46528,-86.00375 39.53652,-14.38651 83.26202,8.77514 97.04991,47.72843 15.66615,44.25973 -10.32939,92.98637 -53.99158,108.09606 -48.98106,16.95034 -102.71417,-11.88258 -119.14223,-60.25473 -18.18798,-53.55424 13.26268,-112.16798 66.13978,-130.06121"
       copytype="repeated_stretched"
       prop_scale="0.07"
       scale_y_rel="false"
       spacing="3.8"
       normal_offset="0.2"
       tang_offset="0.3"
       prop_units="false"
       vertical_pattern="false"
       hide_knot="false"
       fuse_tolerance="0" />
    <linearGradient
       inkscape:collect="always"
       xlink:href="#linearGradient5742"
       id="linearGradient5744"
       x1="52.855068"
       y1="84.770795"
       x2="243.77399"
       y2="84.770795"
       gradientUnits="userSpaceOnUse" />
    <filter
       inkscape:collect="always"
       style="color-interpolation-filters:sRGB"
       id="filter5754"
       x="-0.0039046512"
       y="-0.0070954059"
       width="1.0078093"
       height="1.0143882">
      <feGaussianBlur
         inkscape:collect="always"
         stdDeviation="0.078187864"
         id="feGaussianBlur5756" />
    </filter>
    <radialGradient
       inkscape:collect="always"
       xlink:href="#linearGradient6088"
       id="radialGradient6090"
       cx="92.93838"
       cy="73.251134"
       fx="92.93838"
       fy="73.251134"
       r="97.159559"
       gradientTransform="matrix(1,0,0,0.4762106,0,38.368168)"
       gradientUnits="userSpaceOnUse" />
  </defs>
  <g
     inkscape:label="Layer 1"
     inkscape:groupmode="layer"
     id="layer1">
    <g
       id="g700"
       style="fill:#808000"
       transform="matrix(2.6554173,0,0,5.6125415,-137.50953,-220.18771)">
      <g
         id="g911"
         transform="matrix(0.65355683,0,0,0.7103487,88.320832,33.43876)"
         style="fill:#782121;stroke:url(#radialGradient6090);filter:url(#filter5754);stroke-width:0.99984362;stroke-miterlimit:4;stroke-dasharray:none;stroke-dashoffset:0;stroke-linejoin:miter;stroke-linecap:round;paint-order:fill markers stroke;stroke-opacity:1"
         inkscape:export-filename="/home/manos/Pictures/match_logo.png"
         inkscape:export-xdpi="96"
         inkscape:export-ydpi="96">
        <path
           id="rect401"
           style="fill:#782121;fill-rule:evenodd;stroke-width:1.04651643;stroke:url(#radialGradient6090);stroke-miterlimit:4;stroke-dasharray:none;stroke-dashoffset:0;stroke-linejoin:miter;stroke-linecap:round;paint-order:fill markers stroke;stroke-opacity:1"
           transform="matrix(1,0,-0.40842365,0.91279249,0,0)"
           d="m 82.104826,122.22408 c 2.107141,0.40011 -8.525698,0.34493 -11.799601,0.18227 -8.875763,-0.441 -3.557088,-1.20671 4.698225,-1.51281 5.063471,-0.18774 10.705513,-0.25231 16.255491,-0.22274 m -1.205904,1.20591 c 0.05661,-10.57782 0.458192,-20.5365 1.001087,-25.338241 1.212557,-10.724701 2.667367,2.403372 3.207014,23.760321 0.0279,1.10406 0.05334,2.21381 0.07638,3.3278 m -1.328694,1.32869 c -13.812601,0.29061 -28.610148,0.1997 -41.35208,-0.15542 M 48.7123,121.85541 c 0.342557,-12.01115 0.930957,-21.908796 1.659911,-27.049941 1.704688,-12.022763 3.612418,2.665438 4.561846,29.591051 m -5.818426,-5.81842 c 3.663049,-0.133 7.581578,-0.24719 11.718412,-0.33938 9.601363,-0.21398 19.531996,-0.30311 29.315281,-0.28475 m -2.813119,2.81312 c 0.05961,-31.715485 1.252366,-60.952087 2.984323,-71.882176 2.669542,-16.847034 5.639801,12.178712 6.595434,59.413056 0.110543,5.46385 0.192178,10.97341 0.246584,16.48243 m -2.999915,2.99991 c -13.895368,0.13834 -27.930982,0.10062 -41.323546,-0.0856 m -7.021676,-7.02168 c 0.471374,-33.520921 1.894362,-62.142887 3.821206,-73.521155 3.394179,-20.043076 7.130916,17.041746 8.289644,77.239425 0.0079,0.41236 0.01574,0.82492 0.02342,1.23765 M 47.883163,115.56048 c 13.565166,-0.25619 27.445051,-0.36706 41.14579,-0.34967 m -4.435905,4.43591 c 0.04098,-32.244461 0.793926,-62.913019 2.036087,-85.729686 m 7.693315,7.693322 C 78.936062,40.808371 66.656135,39.802456 59.220708,38.652559 40.706804,35.789365 55.116971,32.737591 89.861016,30.686819 m 7.691656,7.691643 c 0.890846,15.820354 1.592803,35.323413 2.008361,57.397501" />
        <path
           id="rect401-3"
           style="fill:#782121;fill-rule:evenodd;stroke-width:1.04651643;stroke:url(#radialGradient6090);stroke-miterlimit:4;stroke-dasharray:none;stroke-dashoffset:0;stroke-linejoin:miter;stroke-linecap:round;paint-order:fill markers stroke;stroke-opacity:1"
           transform="matrix(-1,0,0.40842365,0.91279249,0,0)"
           d="m -101.57318,123.19444 c 1.780312,-0.40011 -8.80745,-0.34493 -11.94848,-0.18227 -8.51554,0.441 -2.57139,1.20671 5.93395,1.51281 5.21683,0.18774 10.91162,0.25231 16.437443,0.22274 m 1.205904,-1.20591 c -0.05661,-10.62405 -0.458192,-20.91076 -1.001087,-26.155964 -1.212557,-11.715174 -2.667367,0.224541 -3.207014,21.140684 -0.0279,1.08126 -0.05334,2.17024 -0.07638,3.2654 m 1.328694,-1.32869 c -14.04999,-0.29061 -28.77327,-0.1997 -41.22512,0.15542 m 2.94445,2.94445 c -0.34256,-12.29097 -0.93096,-22.66925 -1.65992,-28.405844 -1.70468,-13.415233 -3.61241,-0.285354 -4.56184,25.864734 m 5.81842,5.81842 c 3.77169,0.133 7.78349,0.24719 11.99563,0.33938 9.77615,0.21398 19.779594,0.30311 29.547882,0.28475 m 2.813117,-2.81312 c -0.05961,-31.764171 -1.252366,-61.97507 -2.984323,-74.319902 -2.669542,-19.027642 -5.639801,7.571855 -6.595434,54.025592 -0.110543,5.37355 -0.192178,10.81643 -0.246584,16.28101 m 2.999911,-2.99992 c -14.008369,-0.13834 -28.013169,-0.10062 -41.253649,0.0856 m 7.02168,7.02168 c -0.47138,-33.905963 -1.89437,-63.690296 -3.82121,-76.642503 -3.39418,-22.815601 -7.13092,11.216877 -8.28964,70.468053 -0.008,0.40588 -0.0157,0.81206 -0.0234,1.21853 m 10.06851,10.06851 c 13.77443,0.25619 27.74488,0.36706 41.431412,0.34967 m 4.435904,-4.43591 c -0.041,-32.277971 -0.793946,-63.561568 -2.036107,-87.392891 m -7.693322,-7.693315 c -14.731287,0.801986 -26.189537,1.8079 -32.685667,2.957797 -16.17511,2.863194 0.72788,5.914968 37.147095,7.965739 m -7.691642,-7.691655 c -0.890847,15.09267 -1.592804,34.022337 -2.008362,55.75698" />
        <path
           id="rect612"
           style="fill:#782121;fill-rule:evenodd;stroke-width:1.08750933;stroke:url(#radialGradient6090);stroke-miterlimit:4;stroke-dasharray:none;stroke-dashoffset:0;stroke-linejoin:miter;stroke-linecap:round;paint-order:fill markers stroke;stroke-opacity:1"
           transform="matrix(-1,0,0.53433107,0.84527529,0,0)"
           d="m -23.150375,105.72364 c 1.40239,-0.43208 -7.481333,-0.37249 -10.082623,-0.19683 -7.052267,0.47622 -1.878515,1.3031 5.339878,1.63364 4.435049,0.20309 9.244187,0.27271 13.887853,0.24037 m 1.024992,-1.02499 c -0.06174,-8.931999 -0.49515,-17.657979 -1.080885,-22.188276 -1.309412,-10.127482 -2.880426,-0.435017 -3.463178,17.014096 -0.02987,0.89429 -0.05713,1.79551 -0.08184,2.70241 m 1.129146,-1.12914 c -14.442461,-0.38242 -29.592495,-0.15511 -41.046049,0.45393 m 3.023933,3.02394 c -0.374965,-7.452245 -0.894621,-13.657994 -1.505763,-17.532658 -1.650287,-10.462886 -3.47679,-3.037767 -4.575946,14.283008 m 6.307418,6.30742 c 5.025685,0.29867 10.724625,0.54364 16.917097,0.71677 8.272697,0.23129 16.707502,0.32751 24.918773,0.30744 m 2.39124,-2.39125 c -0.06508,-26.695947 -1.352901,-52.348165 -3.22264,-63.122961 -2.882774,-16.612637 -6.090286,5.043716 -7.122251,43.854142 -0.119166,4.48165 -0.207224,9.028093 -0.265975,13.599109 m 2.549907,-2.54991 C -32.255264,99.54452 -46.3404,99.63833 -59.272924,99.954024 m 8.048604,8.048606 c -0.614641,-25.836098 -2.070352,-48.201813 -3.988398,-58.649493 -3.528338,-19.219002 -7.399468,5.752714 -8.800028,51.816233 m 11.573076,11.57308 c 1.846078,0.0544 3.719957,0.10501 5.620109,0.15176 11.982414,0.29483 24.116415,0.4224 35.964834,0.40284 m 3.7706868,-3.77068 c 0,0 0,-1e-5 0,-1e-5 -0.039882,-24.202504 -0.691498,-47.87134 -1.7841077,-67.117645 m -9.6866111,-9.686611 c -15.266778,0.922669 -27.043694,2.159818 -33.098747,3.608628 -13.83006,3.309158 4.228501,6.851584 39.863922,9.0524 m -9.739592,-9.739603 c -0.748762,11.323722 -1.342233,24.847918 -1.718393,40.075262" />
        <path
           id="rect614"
           style="fill:#782121;fill-rule:evenodd;stroke-width:1.08750933;stroke:url(#radialGradient6090);stroke-miterlimit:4;stroke-dasharray:none;stroke-dashoffset:0;stroke-linejoin:miter;stroke-linecap:round;paint-order:fill markers stroke;stroke-opacity:1"
           transform="matrix(1,0,-0.53433107,0.84527529,0,0)"
           d="m 160.36403,104.67576 c 1.86413,0.43208 -7.08327,0.37249 -9.87228,0.19683 -7.56119,-0.47622 -3.27109,-1.3031 3.59406,-1.63364 4.21802,-0.20309 8.95276,-0.27271 13.63098,-0.24037 m -1.02499,1.02499 c 0.0617,-8.866007 0.49515,-17.128822 1.08089,-21.033165 1.30941,-8.728164 2.88042,2.643184 3.46317,20.715055 0.0299,0.92621 0.0571,1.85657 0.0818,2.78988 m -1.12914,1.12914 c -14.03379,0.38242 -29.42674,0.15511 -41.53115,-0.45393 m -3.02394,-3.02393 c 0.37497,-7.051535 0.89462,-12.701948 1.50577,-15.923508 1.65028,-8.699288 3.47679,0.677747 4.57594,19.173148 m -6.30742,-6.30742 c 4.7065,-0.29867 10.14366,-0.54364 16.15111,-0.71677 8.02552,-0.23129 16.3575,-0.32751 24.59023,-0.30744 m -2.39125,2.39124 c 0.0651,-26.626394 1.3529,-50.902371 3.22264,-59.679047 2.88278,-13.531926 6.09029,11.552174 7.12225,51.465422 0.11917,4.608998 0.20723,9.249545 0.26598,13.883345 m -2.54991,2.54991 c -13.95628,0.17938 -28.14167,0.0856 -41.41156,-0.23012 m -8.04861,-8.04861 c 0.61464,-25.179251 2.07036,-45.989304 3.9884,-54.38724 3.52834,-15.448401 7.39947,13.660245 8.80003,61.2205 M 123.57399,97.65695 c 1.78799,-0.05436 3.60775,-0.105005 5.45793,-0.15176 11.66734,-0.294835 23.66501,-0.422403 35.53433,-0.402845 m -3.77068,3.770685 c 0,0 0,0 0,-1e-5 0.0399,-24.15988 0.69149,-47.132359 1.7841,-65.211033 m 9.68661,9.686611 C 156.01349,44.425929 142.91447,43.18878 135.31113,41.73997 117.9447,38.430812 132.21761,34.888386 165.5011,32.687571 m 9.7396,9.73959 c 0.74876,12.123897 1.34223,26.282313 1.71839,41.911645" />
      </g>
      <path
         style="fill:none;stroke:url(#linearGradient5744);stroke-opacity:1;stroke-width:1.29516125;stroke-miterlimit:4;stroke-dasharray:15.54193505, 15.54193505;stroke-dashoffset:6.34629014;stroke-linejoin:round"
         id="path876"
         sodipodi:type="arc"
         sodipodi:cx="148.31465"
         sodipodi:cy="84.809006"
         sodipodi:rx="94.147163"
         sodipodi:ry="44.543102"
         sodipodi:start="0"
         sodipodi:end="6.2767623"
         sodipodi:arc-type="arc"
         d="M 242.46181,84.809006 A 94.147163,44.543102 0 0 1 148.46583,129.35205 94.147163,44.543102 0 0 1 54.167974,84.952056 94.147163,44.543102 0 0 1 147.86112,40.26642 94.147163,44.543102 0 0 1 242.45987,84.522907"
         sodipodi:open="true" />
    </g>
  </g>
</svg>
